<svg fill="none" xmlns="http://www.w3.org/2000/svg" viewBox="0 0 181 204">
  <path d="M82.5 79c2.67-22.5 19.4-66 65-60-4.33 24.5-23.4 70.8-65 60Z" fill="#B0C52C" stroke="#000" stroke-width="5"/>
  <path d="M15 148.2c2.67-25.34 19.4-74.32 65-67.57-4.33 27.59-23.4 79.72-65 67.56Z" fill="#2D8FD6" stroke="#000" stroke-width="5"/>
  <path d="M16.19 16.28c22.59 1.73 66.75 16.63 62.67 62.44C54.2 75.42 7.14 58.3 16.19 16.28Z" fill="#FA0707" stroke="#000" stroke-width="5"/>
  <path d="M82.22 82.28c23.08 1.97 68.23 18.46 64.2 68.74-25.19-3.7-73.3-22.64-64.2-68.74Z" fill="#EA0C84" stroke="#000" stroke-width="5"/>
  <path d="M83.5 69c-.33-15 4.4-48.1 26-60.5M55.53 7.08c10.76 10.45 30.6 37.37 23.91 61.35" stroke="#000" stroke-width="5"/>
  <circle cx="108" cy="8" r="7" fill="#000"/>
  <circle cx="53" cy="7" r="7" fill="#000"/>
  <ellipse cx="81.5" cy="168" rx="69.5" ry="3" fill="#C4C4C4" fill-opacity=".5"/>
  <path d="M4.95 201.28c-1.28 0-2.19-.3-2.74-.9a3.47 3.47 0 0 1-.83-2.42c0-.26.02-.57.07-.94l.18-1.33a19.24 19.24 0 0 0 .37-3.96c0-.81-.02-1.47-.07-1.98-.26.16-.45.23-.57.23-.25 0-.37-.27-.37-.82 0-.43.1-.8.27-1.09.2-.3.53-.59.97-.85a7.93 7.93 0 0 1 3.89-1.01c1.27 0 2.24.3 2.9.88.66.58.99 1.34.99 2.3 0 .6-.14 1.18-.4 1.7s-.62.98-1.1 1.38c1.92.3 2.88 1.4 2.88 3.3 0 1.04-.3 1.97-.88 2.81a5.9 5.9 0 0 1-2.37 1.98c-.96.48-2.03.72-3.2.72Zm.92-2.56c.68 0 1.3-.09 1.86-.27.57-.2 1.02-.49 1.36-.85.33-.37.5-.8.5-1.3 0-.62-.22-1.06-.67-1.33-.44-.26-.95-.39-1.54-.39-.24 0-.55.03-.92.07a2.7 2.7 0 0 1-.53.05c-.33 0-.62-.14-.85-.42a1.63 1.63 0 0 1-.32-1.03c0-.3.13-.48.4-.55 1.86-.5 2.8-1.34 2.8-2.56 0-.96-.67-1.44-2-1.44-.5 0-1.1.08-1.82.25 0 .75-.04 1.54-.11 2.37-.08.81-.2 1.66-.35 2.55l-.23 1.56c-.05.42-.07.75-.07 1.02 0 .82.2 1.41.62 1.77.42.33 1.04.5 1.87.5Zm12.85 2.58c-1.6 0-2.81-.42-3.6-1.27-.8-.85-1.2-2.2-1.2-4.02a21.19 21.19 0 0 1 .18-2.88c.02-.3.02-.58.02-.82 0-.92-.03-1.72-.11-2.4a4.59 4.59 0 0 0-.7-1.93 1 1 0 0 1-.18-.48c0-.2.11-.4.33-.58.23-.2.5-.36.8-.5.3-.14.6-.2.88-.2.36 0 .62.11.78.36.17.24.27.55.32.92.05.35.07.71.07 1.08a20.13 20.13 0 0 1-.23 2.76l-.18 1.84c-.05.63-.07 1.26-.07 1.9 0 .9.15 1.61.46 2.15.32.52.75.9 1.28 1.15.56.23 1.17.34 1.84.34 1.18 0 2.07-.3 2.67-.9a4.96 4.96 0 0 0 1.24-2.39c.11-.44.2-.95.26-1.51a16.92 16.92 0 0 0-.07-3.94c-.1-.69-.29-1.3-.58-1.81l-.16-.33a.66.66 0 0 1-.07-.3c0-.21.1-.42.28-.62.18-.21.41-.38.69-.5.27-.14.56-.2.85-.2.5 0 .82.2.99.61.17.42.25.9.25 1.45a39.36 39.36 0 0 1-.3 3.54l-.27 2.1c-.1.64-.18 1.14-.26 1.5a9.03 9.03 0 0 1-2.02 4.32c-.97 1.04-2.36 1.56-4.19 1.56Zm13.28-.07c-.19 0-.38-.03-.58-.1-.18-.05-.34-.2-.46-.43a2.34 2.34 0 0 1-.18-1.06c0-.33.02-.75.07-1.24.06-.49.13-1.02.23-1.59a35.89 35.89 0 0 0 .43-5.03 13 13 0 0 0-.36-3.1 11.95 11.95 0 0 0-3.24.41c-.15.01-.27.03-.38.06l-.27.03c-.14 0-.24-.03-.3-.07-.06-.06-.1-.2-.1-.42a3 3 0 0 1 .12-.8c.08-.3.2-.54.35-.74.15-.21.33-.36.53-.46.21-.1.44-.17.69-.2a60 60 0 0 1 7.93-.25c.5 0 .82.03 1 .06.2.03.35.1.43.21.09.1.14.25.14.46 0 .41-.19.83-.56 1.24a2.1 2.1 0 0 1-.48.44c-.17.1-.39.13-.67.11a50.6 50.6 0 0 0-2.67-.1 53.55 53.55 0 0 1-.37 4.03c-.08.71-.16 1.42-.22 2.12-.06.7-.1 1.35-.1 1.94 0 .53.05 1 .14 1.42.11.4.32.75.62 1.04.22.21.33.44.33.69 0 .33-.2.64-.58.92a2.5 2.5 0 0 1-1.5.41Zm11.27 0c-.18 0-.37-.03-.57-.1-.19-.05-.34-.2-.46-.43a2.34 2.34 0 0 1-.19-1.06c0-.33.03-.75.07-1.24.06-.49.14-1.02.23-1.59a35.89 35.89 0 0 0 .44-5.03 13 13 0 0 0-.37-3.1 11.95 11.95 0 0 0-3.24.41c-.14.01-.26.03-.37.06-.1.02-.18.03-.28.03-.13 0-.23-.03-.3-.07-.06-.06-.09-.2-.09-.42a3 3 0 0 1 .12-.8c.07-.3.19-.54.34-.74.16-.21.33-.36.53-.46.22-.1.45-.17.7-.2a60 60 0 0 1 7.93-.25c.49 0 .82.03.99.06.21.03.36.1.43.21.1.1.14.25.14.46 0 .41-.18.83-.55 1.24a2.1 2.1 0 0 1-.48.44c-.17.1-.4.13-.67.11a50.6 50.6 0 0 0-2.67-.1 53.55 53.55 0 0 1-.37 4.03c-.09.71-.17 1.42-.23 2.12-.06.7-.09 1.35-.09 1.94 0 .53.05 1 .14 1.42.1.4.31.75.62 1.04.21.21.32.44.32.69 0 .33-.19.64-.57.92a2.5 2.5 0 0 1-1.5.41Zm11.58.07c-1.46 0-2.54-.23-3.25-.7-.69-.47-1.03-1.35-1.03-2.64a11.6 11.6 0 0 1 .23-2.27c.12-.75.21-1.42.27-2a19.25 19.25 0 0 0-.06-4.51c-.23.04-.39.07-.46.07-.13 0-.21-.03-.26-.07-.04-.06-.07-.17-.07-.32 0-.33.04-.64.12-.95.07-.32.18-.58.32-.78a1.6 1.6 0 0 1 1.2-.64 46.12 46.12 0 0 1 5.1-.28c1.41 0 2.25.03 2.5.1.4.05.6.27.6.64 0 .46-.15.88-.48 1.26-.16.23-.33.4-.5.5-.17.1-.4.14-.71.12a46.97 46.97 0 0 0-3.94-.09l-1.12.07c0 .54-.03 1.11-.07 1.72-.05.62-.11 1.26-.19 1.94.7-.05 1.5-.08 2.4-.1.88-.03 1.67-.04 2.36-.04.31 0 .52.03.62.1.13.05.19.21.19.47 0 .25-.07.53-.2.83-.13.3-.3.55-.51.76-.1.1-.2.17-.3.23-.11.05-.26.06-.44.05a78.12 78.12 0 0 0-4.44-.07 14.58 14.58 0 0 0-.18 1.75c0 .84.21 1.43.64 1.77.43.33 1.14.5 2.12.5.6 0 1.17-.05 1.72-.16a6.6 6.6 0 0 0 1.73-.6c.21-.12.37-.18.48-.18.17 0 .33.12.48.37.17.23.26.48.26.76 0 .33-.13.66-.4.96-.24.3-.57.55-.98.76-.48.22-1.05.38-1.7.49-.67.12-1.35.18-2.05.18Zm8.15-.07c-.19 0-.38-.03-.58-.1-.18-.05-.34-.2-.46-.43a2.34 2.34 0 0 1-.18-1.06c0-.3.02-.7.07-1.17l.18-1.43a43.49 43.49 0 0 0 .48-5.26 23.24 23.24 0 0 0-.11-2.03c-.1.05-.2.1-.32.14-.11.03-.2.05-.28.05-.15 0-.26-.08-.32-.23a2.19 2.19 0 0 1-.07-.58c0-.49.11-.88.34-1.17.25-.3.61-.58 1.08-.83a8.98 8.98 0 0 1 4.05-1.01c.95 0 1.8.17 2.53.5.74.34 1.31.82 1.73 1.43.41.61.62 1.35.62 2.2a4.4 4.4 0 0 1-.65 2.38 5.58 5.58 0 0 1-3.59 2.55 12.5 12.5 0 0 0 1.66 2.19c.88.9 1.77 1.35 2.67 1.35.25 0 .46-.01.64-.04.1-.02.17.02.23.11.08.08.12.24.12.49 0 .29-.06.59-.18.9-.13.28-.33.53-.63.73-.29.2-.69.3-1.2.3-.59 0-1.16-.2-1.72-.6-.53-.4-1.03-.9-1.5-1.52a16.5 16.5 0 0 1-1.23-1.98c-.36-.69-.65-1.32-.9-1.9a9.13 9.13 0 0 1-.16-.49 1.84 1.84 0 0 1-.07-.48c0-.26.08-.48.25-.65.13-.12.3-.2.5-.25.24-.05.57-.07 1-.07.81 0 1.47-.22 1.98-.67.5-.44.75-1.01.75-1.72 0-.77-.29-1.33-.87-1.68a3.89 3.89 0 0 0-2.1-.53c-.67 0-1.37.1-2.1.32-.05 1-.16 2.14-.33 3.43-.1.77-.18 1.53-.25 2.28-.06.75-.1 1.43-.1 2.05 0 .53.05 1 .14 1.42.11.4.32.75.62 1.04.22.21.33.44.33.69 0 .33-.2.64-.58.92a2.5 2.5 0 0 1-1.5.41Zm12.64 0c-.19 0-.38-.03-.58-.1a.93.93 0 0 1-.48-.43 2.34 2.34 0 0 1-.18-1.06c0-.3.03-.7.09-1.2l.25-1.95c.08-.5.16-1.18.25-2.02a21.7 21.7 0 0 0 .12-4c-.03-.48-.1-.9-.19-1.3-.18.05-.32.08-.41.08-.1 0-.16-.03-.2-.07-.05-.06-.08-.17-.08-.32 0-.31.03-.62.1-.92.07-.33.19-.6.34-.8.15-.22.33-.38.53-.47.21-.1.44-.15.67-.18a65.2 65.2 0 0 1 5.1-.28c.72 0 1.25 0 1.59.02a7 7 0 0 1 .8.07c.4.06.6.28.6.65 0 .26-.05.5-.16.71-.09.2-.2.38-.34.55-.17.25-.36.42-.55.53-.19.1-.43.12-.74.1a13.4 13.4 0 0 0-1.08-.08 22.47 22.47 0 0 0-2.5-.02l-1.27.07c-.02.52-.07 1.12-.14 1.8l-.25 2.02c.4-.03.9-.06 1.49-.07a62.59 62.59 0 0 1 3.43-.1c.27 0 .47.04.6.12.12.06.18.2.18.44 0 .26-.07.54-.2.85-.13.3-.3.54-.51.76-.2.21-.42.31-.65.3a100.63 100.63 0 0 0-3.82-.1h-.73l-.1 1.02-.02.9c0 .53.06 1 .16 1.42.11.4.32.75.63 1.04.2.2.3.42.3.69 0 .33-.2.64-.58.92-.38.27-.87.41-1.47.41Zm12.91.07a6.66 6.66 0 0 1-2.41-.35 2.16 2.16 0 0 1-1.17-.96c-.22-.42-.33-.9-.33-1.47 0-.28.03-.59.07-.92l.16-1.2c.28-1.69.42-3.18.42-4.49 0-.85-.04-1.58-.12-2.18a4.1 4.1 0 0 0-.6-1.75l-.16-.27a.7.7 0 0 1-.07-.26c0-.18.11-.37.33-.57.21-.2.47-.37.78-.5.3-.15.6-.22.87-.22.52 0 .85.21.97.63.14.41.2 1 .2 1.77 0 .29-.02.76-.09 1.4-.06.63-.15 1.43-.27 2.41-.12.96-.22 1.78-.28 2.47-.06.69-.09 1.24-.09 1.65 0 .61.07 1.08.2 1.4.16.31.4.53.74.65.34.12.82.18 1.43.18a8.94 8.94 0 0 0 3.84-.78.7.7 0 0 1 .16-.02c.14 0 .27.08.4.25.11.17.18.4.18.71 0 .68-.37 1.2-1.1 1.6a8.3 8.3 0 0 1-4.06.82Zm8.1-.2c-.48 0-.84-.1-1.09-.3-.24-.22-.36-.59-.36-1.11 0-.4.06-.95.18-1.66.14-.72.33-1.52.58-2.39a26.27 26.27 0 0 0-1.06-3.82c-.3-.81-.65-1.5-1.06-2.04-.41-.56-.9-.83-1.47-.83-.11 0-.22 0-.32.02l-.26.07c-.15.03-.31-.08-.48-.32a1.62 1.62 0 0 1-.23-.88c0-.43.15-.8.44-1.12.3-.34.72-.5 1.24-.5.64 0 1.23.2 1.77.63a4.96 4.96 0 0 1 1.45 2.12c.43 1 .77 2.35 1.03 4.07.28-.7.6-1.45 1-2.23.4-.8.84-1.54 1.33-2.23a7.4 7.4 0 0 1 1.58-1.7 2.86 2.86 0 0 1 1.8-.67c.41 0 .73.1.94.3.23.2.35.48.35.83 0 .24-.06.5-.17.78-.09.28-.22.51-.39.71-.17.2-.34.3-.53.3h-.2a1.47 1.47 0 0 1-.2-.07 1.17 1.17 0 0 0-.54-.11c-.49 0-1.03.34-1.6 1.01-.6.67-1.17 1.72-1.73 3.13a11.82 11.82 0 0 0-.88 4.32c0 .32.04.65.12.97.09.3.25.59.48.85.15.23.23.44.23.64 0 .34-.18.63-.55.88a2.6 2.6 0 0 1-1.4.34Zm17.22.2c-.75 0-1.45-.1-2.1-.32a3.95 3.95 0 0 1-1.51-.95c-.38-.4-.58-.86-.58-1.4 0-.35.09-.66.26-.92.17-.28.4-.41.69-.41.18 0 .37.07.57.2a5.22 5.22 0 0 0 5.64.74c.58-.37.87-.86.87-1.47 0-.59-.27-1-.8-1.27a11.4 11.4 0 0 0-2.23-.73c-.71-.17-1.4-.39-2.05-.65a4.46 4.46 0 0 1-1.61-1.08 2.77 2.77 0 0 1-.62-1.88c0-.6.13-1.2.39-1.78.26-.6.64-1.14 1.15-1.63a6.17 6.17 0 0 1 4.28-1.63c.67 0 1.28.08 1.84.23.56.15 1 .37 1.33.64.34.28.5.62.5 1.01 0 .31-.08.58-.25.81-.17.23-.36.41-.6.55-.23.13-.42.19-.6.19-.15 0-.35-.07-.61-.21-.43-.23-.92-.4-1.45-.53-.52-.14-.98-.2-1.38-.2-.75 0-1.37.16-1.84.5-.46.32-.7.7-.7 1.15 0 .49.3.9.88 1.24.6.32 1.66.67 3.2 1.04 1.04.27 1.85.66 2.44 1.15.58.47.87 1.23.87 2.27 0 .94-.25 1.81-.76 2.63a5.53 5.53 0 0 1-2.1 1.97c-.88.5-1.92.74-3.12.74Zm12.17-.07c-.18 0-.38-.03-.57-.1-.19-.05-.34-.2-.46-.43a2.33 2.33 0 0 1-.19-1.06c0-.33.03-.75.07-1.24.06-.49.14-1.02.23-1.59a36.55 36.55 0 0 0 .44-5.03 13.1 13.1 0 0 0-.37-3.1 11.9 11.9 0 0 0-3.24.41c-.14.01-.26.03-.37.06l-.28.03c-.13 0-.23-.03-.3-.07-.06-.06-.09-.2-.09-.42 0-.26.04-.52.12-.8.07-.3.19-.54.34-.74.16-.21.33-.36.53-.46.21-.1.44-.17.7-.2a59.88 59.88 0 0 1 7.94-.25c.48 0 .8.03.97.06.22.03.37.1.44.21.1.1.14.25.14.46 0 .41-.18.83-.55 1.24-.16.19-.32.33-.48.44-.17.1-.4.13-.67.11a50.66 50.66 0 0 0-2.67-.1 54.87 54.87 0 0 1-.37 4.03 49 49 0 0 0-.23 2.12c-.06.7-.09 1.35-.09 1.94 0 .53.05 1 .14 1.42.1.4.31.75.62 1.04.21.21.32.44.32.69 0 .33-.2.64-.57.92a2.5 2.5 0 0 1-1.5.41Zm12.31.07c-1.6 0-2.81-.42-3.61-1.27-.8-.85-1.2-2.2-1.2-4.02l.03-.97.09-.99a17.79 17.79 0 0 0 .1-1.74c0-.92-.05-1.72-.12-2.4a4.6 4.6 0 0 0-.7-1.93 1 1 0 0 1-.18-.48c0-.2.1-.4.32-.58.23-.2.5-.36.8-.5.32-.14.6-.2.88-.2.37 0 .63.11.78.36.17.24.28.55.33.92.04.35.07.71.07 1.08a20.08 20.08 0 0 1-.23 2.76l-.19 1.84c-.04.63-.07 1.26-.07 1.9 0 .9.16 1.61.46 2.15.33.52.75.9 1.3 1.15.54.23 1.16.34 1.83.34 1.18 0 2.07-.3 2.67-.9a4.96 4.96 0 0 0 1.24-2.39 17 17 0 0 0 .18-5.45c-.09-.69-.28-1.3-.57-1.81l-.16-.33a.66.66 0 0 1-.07-.3c0-.21.1-.42.28-.62.18-.21.41-.38.69-.5.27-.14.56-.2.85-.2.49 0 .82.2.99.61.17.42.25.9.25 1.45 0 .34-.03.83-.1 1.47-.04.65-.1 1.34-.2 2.07-.1.74-.18 1.44-.28 2.1-.09.64-.17 1.14-.25 1.5a9.02 9.02 0 0 1-2.02 4.32c-.97 1.04-2.36 1.56-4.19 1.56Zm12.65 0c-.56 0-1.09-.06-1.56-.16-.48-.1-.87-.3-1.17-.6a1.58 1.58 0 0 1-.46-.71 3.33 3.33 0 0 1-.12-.9c0-.52.05-1.04.14-1.56.14-.9.26-1.88.37-2.93.1-1.04.16-2 .16-2.9 0-.27-.02-.58-.05-.94a9.63 9.63 0 0 0-.09-.98l-.32.13a.8.8 0 0 1-.25.05c-.14 0-.24-.07-.28-.2a2.02 2.02 0 0 1 .23-1.59c.21-.33.56-.61 1.03-.86a8.3 8.3 0 0 1 1.98-.7 9.93 9.93 0 0 1 2.5-.33c1.92 0 3.43.57 4.52 1.7 1.1 1.12 1.65 2.72 1.65 4.78 0 1.19-.18 2.3-.55 3.36a7.54 7.54 0 0 1-4.19 4.67c-1.02.45-2.2.67-3.54.67Zm.74-2.58c.69 0 1.38-.1 2.07-.32a5.84 5.84 0 0 0 1.86-.97 4.71 4.71 0 0 0 1.87-4.04c0-1.06-.21-1.93-.63-2.63a3.9 3.9 0 0 0-1.65-1.54 5.17 5.17 0 0 0-2.3-.5 8.34 8.34 0 0 0-2.44.34 37.85 37.85 0 0 1-.37 4 25.54 25.54 0 0 0-.3 3.8c0 .77.16 1.27.46 1.52.32.23.8.34 1.43.34Zm11.16 2.51c-.36 0-.66-.1-.9-.3-.22-.2-.34-.6-.34-1.22 0-.3.03-.7.1-1.2l.18-1.47c.17-1.08.3-2.03.37-2.82.07-.8.11-1.62.11-2.44 0-.77-.04-1.48-.14-2.14a3.6 3.6 0 0 0-.62-1.7c-.12-.2-.18-.36-.18-.46 0-.19.1-.38.3-.58.21-.21.47-.39.76-.53.3-.14.59-.2.85-.2.47 0 .79.21.94.64.17.41.25.93.25 1.56a49 49 0 0 1-.37 4.3c-.1.82-.18 1.58-.25 2.28-.06.7-.09 1.3-.09 1.8 0 .58.06 1.07.16 1.47.13.4.33.72.62.99.2.18.3.39.3.62 0 .36-.19.7-.57.99a2.4 2.4 0 0 1-1.47.41Zm9.52.07a5.22 5.22 0 0 1-3.8-1.38c-.93-.94-1.4-2.3-1.4-4.12a9.81 9.81 0 0 1 1.45-5.13c-.29.26-.56.4-.82.4-.45 0-.67-.36-.67-1.06 0-.51.1-.92.32-1.22.22-.31.42-.55.62-.74.34-.29.77-.58 1.3-.87.51-.31 1.13-.56 1.83-.76.7-.2 1.5-.3 2.37-.3 2.05 0 3.6.58 4.62 1.75 1.04 1.15 1.57 2.75 1.57 4.8 0 1.22-.18 2.34-.53 3.39a8.35 8.35 0 0 1-1.52 2.73 6.73 6.73 0 0 1-5.34 2.5Zm.8-2.58c.78 0 1.53-.17 2.26-.53a4.3 4.3 0 0 0 1.84-1.68c.5-.78.74-1.79.74-3.03a5.1 5.1 0 0 0-.67-2.78 3.85 3.85 0 0 0-1.7-1.52 4.9 4.9 0 0 0-3.68-.25c-.44.13-.84.29-1.2.45-.4.62-.77 1.37-1.12 2.26-.36.87-.53 1.8-.53 2.78 0 .98.19 1.8.57 2.44.39.63.88 1.1 1.5 1.4.63.31 1.3.46 2 .46Z" fill="#000"/>
</svg>
